<svg width="840" height="640" viewBox="0 0 840 640" fill="none" xmlns="http://www.w3.org/2000/svg">
  <g id="Frame">
    <rect width="840" height="640" fill="#555D50" />
    <g id="PlayingSpace">
      <path d="M20.5 20.5H819.5V619.5H20.5V20.5Z" fill="#F4503E" fill-opacity="0.8" />
      <path d="M20.5 20.5H819.5V619.5H20.5V20.5Z" fill="url(#paint0_linear)" />
      <path d="M20.5 20.5H819.5V619.5H20.5V20.5Z" stroke="#D8B646" />
    </g>
    <g id="RectGrid">
      <rect id="L7" x="753" y="545" width="66" height="74" fill="#537D8D" fill-opacity="0.01" />
      <rect id="K7" x="687" y="545" width="65" height="74" fill="#537D8D" fill-opacity="0.01" />
      <rect id="J7" x="620" y="545" width="66" height="74" fill="#537D8D" fill-opacity="0.01" />
      <rect id="I7" x="554" y="545" width="65" height="74" fill="#537D8D" fill-opacity="0.01" />
      <rect id="H7" x="487" y="545" width="66" height="74" fill="#537D8D" fill-opacity="0.01" />
      <rect id="G7" x="421" y="545" width="65" height="74" fill="#537D8D" fill-opacity="0.01" />
      <rect id="F7" x="354" y="545" width="66" height="74" fill="#537D8D" fill-opacity="0.01" />
      <rect id="E7" x="287" y="545" width="66" height="74" fill="#537D8D" fill-opacity="0.01" />
      <rect id="D7" x="221" y="545" width="65" height="74" fill="#537D8D" fill-opacity="0.01" />
      <rect id="C7" x="154" y="545" width="66" height="74" fill="#537D8D" fill-opacity="0.01" />
      <rect id="B7" x="88" y="545" width="65" height="74" fill="#537D8D" fill-opacity="0.01" />
      <rect id="A7" x="21" y="545" width="66" height="74" fill="#537D8D" fill-opacity="0.01" />
      <rect id="L6" x="753" y="470" width="66" height="74" fill="#537D8D" fill-opacity="0.01" />
      <rect id="K6" x="687" y="470" width="65" height="74" fill="#537D8D" fill-opacity="0.01" />
      <rect id="J6" x="620" y="470" width="66" height="74" fill="#537D8D" fill-opacity="0.01" />
      <rect id="I6" x="554" y="470" width="65" height="74" fill="#537D8D" fill-opacity="0.01" />
      <rect id="H6" x="487" y="470" width="66" height="74" fill="#537D8D" fill-opacity="0.01" />
      <rect id="G6" x="421" y="470" width="65" height="74" fill="#537D8D" fill-opacity="0.01" />
      <rect id="F6" x="354" y="470" width="66" height="74" fill="#537D8D" fill-opacity="0.01" />
      <rect id="E6" x="287" y="470" width="66" height="74" fill="#537D8D" fill-opacity="0.01" />
      <rect id="D6" x="221" y="470" width="65" height="74" fill="#537D8D" fill-opacity="0.01" />
      <rect id="C6" x="154" y="470" width="66" height="74" fill="#537D8D" fill-opacity="0.01" />
      <rect id="B6" x="88" y="470" width="65" height="74" fill="#537D8D" fill-opacity="0.01" />
      <rect id="A6" x="21" y="470" width="66" height="74" fill="#537D8D" fill-opacity="0.01" />
      <rect id="L5" x="753" y="395" width="66" height="74" fill="#537D8D" fill-opacity="0.01" />
      <rect id="K5" x="687" y="395" width="65" height="74" fill="#537D8D" fill-opacity="0.01" />
      <rect id="J5" x="620" y="395" width="66" height="74" fill="#537D8D" fill-opacity="0.01" />
      <rect id="I5" x="554" y="395" width="65" height="74" fill="#537D8D" fill-opacity="0.01" />
      <rect id="H5" x="487" y="395" width="66" height="74" fill="#537D8D" fill-opacity="0.01" />
      <rect id="G5" x="421" y="395" width="65" height="74" fill="#537D8D" fill-opacity="0.01" />
      <rect id="F5" x="354" y="395" width="66" height="74" fill="#537D8D" fill-opacity="0.01" />
      <rect id="E5" x="287" y="395" width="66" height="74" fill="#537D8D" fill-opacity="0.01" />
      <rect id="D5" x="221" y="395" width="65" height="74" fill="#537D8D" fill-opacity="0.01" />
      <rect id="C5" x="154" y="395" width="66" height="74" fill="#537D8D" fill-opacity="0.01" />
      <rect id="B5" x="88" y="395" width="65" height="74" fill="#537D8D" fill-opacity="0.01" />
      <rect id="A5" x="21" y="395" width="66" height="74" fill="#537D8D" fill-opacity="0.01" />
      <rect id="L4" x="753" y="321" width="66" height="73" fill="#537D8D" fill-opacity="0.01" />
      <rect id="K4" x="687" y="321" width="65" height="73" fill="#537D8D" fill-opacity="0.01" />
      <rect id="J4" x="620" y="321" width="66" height="73" fill="#537D8D" fill-opacity="0.01" />
      <rect id="I4" x="554" y="321" width="65" height="73" fill="#537D8D" fill-opacity="0.01" />
      <rect id="H4" x="487" y="321" width="66" height="73" fill="#537D8D" fill-opacity="0.01" />
      <rect id="G4" x="421" y="321" width="65" height="73" fill="#537D8D" fill-opacity="0.01" />
      <rect id="F4" x="354" y="321" width="66" height="73" fill="#537D8D" fill-opacity="0.01" />
      <rect id="E4" x="287" y="321" width="66" height="73" fill="#537D8D" fill-opacity="0.01" />
      <rect id="D4" x="221" y="321" width="65" height="73" fill="#537D8D" fill-opacity="0.01" />
      <rect id="C4" x="154" y="321" width="66" height="73" fill="#537D8D" fill-opacity="0.01" />
      <rect id="B4" x="88" y="321" width="65" height="73" fill="#537D8D" fill-opacity="0.01" />
      <rect id="A4" x="21" y="321" width="66" height="73" fill="#537D8D" fill-opacity="0.01" />
      <rect id="L3" x="753" y="246" width="66" height="74" fill="#537D8D" fill-opacity="0.01" />
      <rect id="K3" x="687" y="246" width="65" height="74" fill="#537D8D" fill-opacity="0.01" />
      <rect id="J3" x="620" y="246" width="66" height="74" fill="#537D8D" fill-opacity="0.01" />
      <rect id="I3" x="554" y="246" width="65" height="74" fill="#537D8D" fill-opacity="0.01" />
      <rect id="H3" x="487" y="246" width="66" height="74" fill="#537D8D" fill-opacity="0.01" />
      <rect id="G3" x="421" y="246" width="65" height="74" fill="#537D8D" fill-opacity="0.01" />
      <rect id="F3" x="354" y="246" width="66" height="74" fill="#537D8D" fill-opacity="0.01" />
      <rect id="E3" x="287" y="246" width="66" height="74" fill="#537D8D" fill-opacity="0.01" />
      <rect id="D3" x="221" y="246" width="65" height="74" fill="#537D8D" fill-opacity="0.01" />
      <rect id="C3" x="154" y="246" width="66" height="74" fill="#537D8D" fill-opacity="0.01" />
      <rect id="B3" x="88" y="246" width="65" height="74" fill="#537D8D" fill-opacity="0.01" />
      <rect id="A3" x="21" y="246" width="66" height="74" fill="#537D8D" fill-opacity="0.01" />
      <rect id="L2" x="753" y="171" width="66" height="74" fill="#537D8D" fill-opacity="0.01" />
      <rect id="K2" x="687" y="171" width="65" height="74" fill="#537D8D" fill-opacity="0.01" />
      <rect id="J2" x="620" y="171" width="66" height="74" fill="#537D8D" fill-opacity="0.01" />
      <rect id="I2" x="554" y="171" width="65" height="74" fill="#537D8D" fill-opacity="0.01" />
      <rect id="H2" x="487" y="171" width="66" height="74" fill="#537D8D" fill-opacity="0.01" />
      <rect id="G2" x="421" y="171" width="65" height="74" fill="#537D8D" fill-opacity="0.01" />
      <rect id="F2" x="354" y="171" width="66" height="74" fill="#537D8D" fill-opacity="0.01" />
      <rect id="E2" x="287" y="171" width="66" height="74" fill="#537D8D" fill-opacity="0.01" />
      <rect id="D2" x="221" y="171" width="65" height="74" fill="#537D8D" fill-opacity="0.01" />
      <rect id="C2" x="154" y="171" width="66" height="74" fill="#537D8D" fill-opacity="0.01" />
      <rect id="B2" x="88" y="171" width="65" height="74" fill="#537D8D" fill-opacity="0.01" />
      <rect id="A2" x="21" y="171" width="66" height="74" fill="#537D8D" fill-opacity="0.01" />
      <rect id="L1" x="753" y="96" width="66" height="74" fill="#537D8D" fill-opacity="0.01" />
      <rect id="K1" x="687" y="96" width="65" height="74" fill="#537D8D" fill-opacity="0.01" />
      <rect id="J1" x="620" y="96" width="66" height="74" fill="#537D8D" fill-opacity="0.01" />
      <rect id="I1" x="554" y="96" width="65" height="74" fill="#537D8D" fill-opacity="0.01" />
      <rect id="H1" x="487" y="96" width="66" height="74" fill="#537D8D" fill-opacity="0.01" />
      <rect id="G1" x="421" y="96" width="65" height="74" fill="#537D8D" fill-opacity="0.01" />
      <rect id="F1" x="354" y="96" width="66" height="74" fill="#537D8D" fill-opacity="0.01" />
      <rect id="E1" x="287" y="96" width="66" height="74" fill="#537D8D" fill-opacity="0.01" />
      <rect id="D1" x="221" y="96" width="65" height="74" fill="#537D8D" fill-opacity="0.01" />
      <rect id="C1" x="154" y="96" width="66" height="74" fill="#537D8D" fill-opacity="0.01" />
      <rect id="B1" x="88" y="96" width="65" height="74" fill="#537D8D" fill-opacity="0.01" />
      <rect id="A1" x="21" y="96" width="66" height="74" fill="#537D8D" fill-opacity="0.01" />
      <rect id="L0" x="753" y="21" width="66" height="74" fill="#537D8D" fill-opacity="0.01" />
      <rect id="K0" x="687" y="21" width="65" height="74" fill="#537D8D" fill-opacity="0.01" />
      <rect id="J0" x="620" y="21" width="66" height="74" fill="#537D8D" fill-opacity="0.01" />
      <rect id="I0" x="554" y="21" width="65" height="74" fill="#537D8D" fill-opacity="0.01" />
      <rect id="H0" x="487" y="21" width="66" height="74" fill="#537D8D" fill-opacity="0.01" />
      <rect id="G0" x="421" y="21" width="65" height="74" fill="#537D8D" fill-opacity="0.01" />
      <rect id="F0" x="354" y="21" width="66" height="74" fill="#537D8D" fill-opacity="0.01" />
      <rect id="E0" x="287" y="21" width="66" height="74" fill="#537D8D" fill-opacity="0.01" />
      <rect id="D0" x="221" y="21" width="65" height="74" fill="#537D8D" fill-opacity="0.01" />
      <rect id="C0" x="154" y="21" width="66" height="74" fill="#537D8D" fill-opacity="0.01" />
      <rect id="B0" x="88" y="21" width="65" height="74" fill="#537D8D" fill-opacity="0.01" />
      <rect id="A0" x="21" y="21" width="66" height="74" fill="#537D8D" fill-opacity="0.01" />
    </g>
    <g id="col-lines" filter="url(#filter0_d)">
      <path id="col-line-11" d="M752.5 21V619" stroke="#D8B646" />
      <path id="col-line-10" d="M686.5 21V619" stroke="#D8B646" />
      <path id="col-line-9" d="M619.5 21V619" stroke="#D8B646" />
      <path id="col-line-8" d="M553.5 21V619" stroke="#D8B646" />
      <path id="col-line-7" d="M486.5 21V619" stroke="#D8B646" />
      <path id="col-line-6" d="M420.5 21V619" stroke="#D8B646" />
      <path id="col-line-5" d="M353.5 21V619" stroke="#D8B646" />
      <path id="col-line-4" d="M286.5 21V619" stroke="#D8B646" />
      <path id="col-line-3" d="M220.5 21V619" stroke="#D8B646" />
      <path id="col-line-2" d="M153.5 21V619" stroke="#D8B646" />
      <path id="col-line-1" d="M87.5 21L87.5 619" stroke="#D8B646" />
    </g>
    <g id="row-lines" filter="url(#filter1_d)">
      <line id="row-line-7" y1="-0.5" x2="798" y2="-0.5" transform="matrix(1 0 -0.000103211 1 21 545)"
        stroke="#D8B646" />
      <line id="row-line-6" y1="-0.5" x2="798" y2="-0.5" transform="matrix(1 0 -0.000103211 1 21 470)"
        stroke="#D8B646" />
      <line id="row-line-5" y1="-0.5" x2="798" y2="-0.5" transform="matrix(1 0 -0.000103211 1 21 395)"
        stroke="#D8B646" />
      <line id="row-line-4" y1="-0.5" x2="798" y2="-0.5" transform="matrix(1 0 -0.000103211 1 21 321)"
        stroke="#D8B646" />
      <line id="row-line-3" y1="-0.5" x2="798" y2="-0.5" transform="matrix(1 0 -0.000103211 1 21 246)"
        stroke="#D8B646" />
      <line id="row-line-2" x1="21" y1="170.5" x2="819" y2="170.5" stroke="#D8B646" />
      <line id="row-line-1" x1="21" y1="95.5" x2="819" y2="95.5" stroke="#D8B646" />
    </g>
  </g>
  <defs>
    <filter id="filter0_d" x="83" y="17" width="674" height="606" filterUnits="userSpaceOnUse"
      color-interpolation-filters="sRGB">
      <feFlood flood-opacity="0" result="BackgroundImageFix" />
      <feColorMatrix in="SourceAlpha" type="matrix" values="0 0 0 0 0 0 0 0 0 0 0 0 0 0 0 0 0 0 127 0" />
      <feOffset />
      <feGaussianBlur stdDeviation="2" />
      <feColorMatrix type="matrix" values="0 0 0 0 0 0 0 0 0 0 0 0 0 0 0 0 0 0 1 0" />
      <feBlend mode="normal" in2="BackgroundImageFix" result="effect1_dropShadow" />
      <feBlend mode="normal" in="SourceGraphic" in2="effect1_dropShadow" result="shape" />
    </filter>
    <filter id="filter1_d" x="17" y="91" width="806" height="458" filterUnits="userSpaceOnUse"
      color-interpolation-filters="sRGB">
      <feFlood flood-opacity="0" result="BackgroundImageFix" />
      <feColorMatrix in="SourceAlpha" type="matrix" values="0 0 0 0 0 0 0 0 0 0 0 0 0 0 0 0 0 0 127 0" />
      <feOffset />
      <feGaussianBlur stdDeviation="2" />
      <feColorMatrix type="matrix" values="0 0 0 0 0 0 0 0 0 0 0 0 0 0 0 0 0 0 1 0" />
      <feBlend mode="normal" in2="BackgroundImageFix" result="effect1_dropShadow" />
      <feBlend mode="normal" in="SourceGraphic" in2="effect1_dropShadow" result="shape" />
    </filter>
    <linearGradient id="paint0_linear" x1="555" y1="20" x2="287" y2="620" gradientUnits="userSpaceOnUse">
      <stop stop-color="white" stop-opacity="0.2" />
      <stop offset="0.515625" stop-color="white" stop-opacity="0" />
      <stop offset="1" stop-color="white" stop-opacity="0.2" />
    </linearGradient>
  </defs>
</svg>